<svg width="166" height="151" viewBox="0 0 166 151" fill="none" xmlns="http://www.w3.org/2000/svg">
<path opacity="0.6" d="M60.4523 1.57956C60.4523 1.57956 8.25948 3.84025 5.29786 49.5873C2.33678 95.3343 -11.3593 138.861 21.955 141.459C55.2692 144.058 133.374 149.104 144.479 121.85C155.584 94.5967 161.137 -8.0171 60.4523 1.57956Z" fill="url(#paint0_linear)"/>
<path d="M165.599 132.479L19.6099 131.217V134.951C19.6099 135.965 20.2467 136.826 21.1089 136.98L62.39 144.332C62.88 144.42 63.3765 144.443 63.8709 144.401L164.012 136.018C164.906 135.943 165.599 135.079 165.599 134.038V132.479Z" fill="#BFC8D6"/>
<path d="M111.875 126.496L19.0869 133.326C17.4267 133.448 16.0766 132.149 16.0766 130.425V61.3285C16.0766 59.604 17.4267 58.2056 19.0869 58.2056H111.875C113.242 58.2056 114.349 59.4693 114.349 61.0283V123.49C114.349 125.049 113.242 126.395 111.875 126.496Z" fill="#BFC8D6"/>
<path d="M113.354 126.496L20.5662 133.326C18.906 133.448 17.5559 132.149 17.5559 130.425V61.3285C17.5559 59.604 18.906 58.2056 20.5662 58.2056H113.354C114.722 58.2056 115.828 59.4693 115.828 61.0283V123.49C115.828 125.049 114.722 126.395 113.354 126.496Z" fill="white"/>
<path d="M110.464 122.092L24.0416 128.025C22.6905 128.118 21.5923 127.052 21.5923 125.644V65.1499C21.5923 63.7421 22.6905 62.5955 24.0416 62.59L110.464 62.2172C111.592 62.2122 112.505 63.2477 112.505 64.5301V119.629C112.505 120.912 111.592 122.014 110.464 122.092Z" fill="#D8DEE8"/>
<path d="M70.2373 60.0956C70.2373 60.7379 69.7599 61.2597 69.1699 61.2614C68.5793 61.263 68.1003 60.7434 68.1003 60.0994C68.1003 59.4555 68.5793 58.9341 69.1699 58.9336C69.7599 58.9336 70.2373 59.4538 70.2373 60.0956Z" fill="white"/>
<path opacity="0.48" d="M20.5662 133.326L112.884 126.53L113.354 126.496C113.981 126.449 114.552 126.139 114.988 125.669C108.345 125.305 104.219 122.948 101.557 120.511C96.212 115.619 97.1391 110.795 91.3744 107.579C84.1848 103.567 78.5317 108.65 73.0754 103.635C69.7676 100.594 71.3915 98.3262 67.3216 93.7823C62.814 88.7495 59.8791 90.441 55.3489 85.9114C49.6209 80.184 52.4855 75.7275 47.5516 71.6152C41.5658 66.6264 35.1103 71.244 29.4121 66.4597C26.9545 64.3965 25.6061 61.3961 24.9017 58.2061H20.5662C18.906 58.2061 17.5559 59.6039 17.5559 61.329V130.425C17.5559 132.149 18.906 133.448 20.5662 133.326Z" fill="white"/>
<path d="M117.726 126.117L19.6099 133.306L62.3905 140.926C62.8805 141.013 63.3771 141.037 63.8715 140.995L165.599 132.479L119.286 126.166C118.769 126.095 118.247 126.079 117.726 126.117Z" fill="url(#paint1_linear)"/>
<path d="M33.9263 133.368L115.611 127.294L140.892 130.712L59.911 137.206L33.9263 133.368Z" fill="#D8DEE8"/>
<path d="M82.9585 40.1523L113.035 71.256C112.564 71.79 111.794 71.8015 111.039 71.751L40.0464 67.0178C39.3793 66.9733 38.764 66.6494 38.2888 66.1545L77.8168 39.3901C79.3862 38.3282 81.4864 38.6389 82.9585 40.1523Z" fill="#D6D6E8"/>
<path d="M83.4864 98.1256L113.161 71.403C112.698 70.8195 112.037 70.4335 111.294 70.3884L40.274 66.093C39.5954 66.0517 38.9691 66.297 38.4852 66.7309L78.3551 98.2658C79.9218 99.5053 82.0176 99.4481 83.4864 98.1256Z" fill="#F6F6FF"/>
<path d="M83.4864 98.1255C82.0181 99.4481 79.9218 99.5053 78.3551 98.2657L38.4852 66.7308C37.8951 67.2604 37.5173 68.0715 37.5173 68.9921V120.117C37.5173 121.84 38.8354 123.224 40.3813 123.124L111.4 118.517C112.778 118.428 113.842 117.166 113.842 115.624V73.3898C113.842 72.6314 113.584 71.9347 113.16 71.4024L83.4864 98.1255Z" fill="#D6D6E8"/>
<path d="M110.078 70.3614L39.0472 66.0655C37.5404 65.9742 36.2904 67.289 36.2904 68.9652V120.094C36.2904 121.817 37.6086 123.201 39.1544 123.101L110.184 118.494C111.562 118.405 112.627 117.143 112.627 115.601V73.3634C112.628 71.7752 111.5 70.4477 110.078 70.3614Z" fill="white"/>
<path d="M110.504 118.081V37.7531C110.504 35.0315 109.737 32.4106 108.311 30.1037L38.4967 23.9601L37.4557 24.9521C38.9383 27.2535 39.8198 29.9289 39.8198 32.7213V119.632L110.504 118.081Z" fill="#D8DEE8"/>
<path d="M111.86 117.153V36.7649C111.86 31.98 110.953 31.4224 109.525 29.1139L38.4967 23.9601C39.9815 26.2631 40.7821 28.9396 40.7821 31.7342V118.703L111.86 117.153Z" fill="url(#paint2_linear)"/>
<path d="M113.835 73.3903V115.625C113.835 117.169 112.774 118.428 111.396 118.519L106.947 118.807L40.4324 123.125C38.8877 123.225 37.6234 121.841 37.6234 120.117V68.9943C37.6234 68.936 37.5723 68.8788 37.5756 68.8222C37.5789 68.7501 37.5574 68.6781 37.5657 68.6077C37.5706 68.5698 37.5624 68.5324 37.569 68.4944C37.569 68.4895 37.5624 68.484 37.564 68.4807C37.5723 68.4273 37.5789 68.3762 37.5893 68.325C37.5992 68.2788 37.608 68.2327 37.6196 68.1887C37.6383 68.115 37.6575 68.0457 37.6806 67.9758C37.7257 67.8395 37.7791 67.7102 37.8412 67.5849C37.8714 67.5271 37.9011 67.4694 37.933 67.4133C37.955 67.3759 37.9765 67.3407 38.0001 67.3033C38.0271 67.261 38.0551 67.2186 38.0854 67.1785C38.1156 67.1361 38.1459 67.096 38.1772 67.0569C38.2091 67.0179 38.241 66.9794 38.2745 66.9426C38.313 66.9008 38.3515 66.8584 38.3917 66.8183C38.4219 66.788 38.4538 66.7594 38.4857 66.7308L78.3557 98.2657C79.9229 99.5053 82.0176 99.4464 83.4858 98.1244L113.161 71.4013C113.374 71.6674 113.545 71.9748 113.66 72.3119C113.691 72.3944 113.716 72.4808 113.738 72.5682C113.749 72.6111 113.759 72.654 113.769 72.6969C113.777 72.7348 113.784 72.7739 113.791 72.8118C113.799 72.8563 113.807 72.9042 113.812 72.9504C113.819 72.9982 113.822 73.0461 113.825 73.0939C113.833 73.1923 113.835 73.2913 113.835 73.3903Z" fill="url(#paint3_linear)"/>
<path opacity="0.37" d="M113.835 73.3903V115.625C113.835 117.169 112.774 118.428 111.396 118.519L106.947 118.807C106.249 116.747 105.167 114.853 103.471 113.631C97.865 109.592 91.1236 116.911 84.5175 112.875C79.7981 109.994 81.6315 105.283 75.9036 101.147C70.4781 97.228 67.2034 100.273 63.404 96.1893C59.7553 92.2645 61.5766 88.1627 57.4121 84.4904C55.2504 82.5827 54.7357 83.6666 49.8277 80.994C44.5755 78.1322 43.9738 76.2141 41.2287 75.8996C40.2355 75.7857 38.8074 75.8875 37.6223 76.5331V68.9943C37.6223 68.936 37.5712 68.8788 37.5745 68.8222C37.5778 68.7501 37.5563 68.6781 37.5646 68.6077C37.5695 68.5698 37.5613 68.5324 37.5679 68.4944C37.5679 68.4895 37.5613 68.484 37.5629 68.4807C37.5712 68.4273 37.5778 68.3762 37.5882 68.325C37.5981 68.2788 37.6069 68.2327 37.6185 68.1887C37.6372 68.115 37.6564 68.0457 37.6795 67.9758C37.7246 67.8395 37.778 67.7102 37.8401 67.5849C37.8703 67.5271 37.9 67.4694 37.9319 67.4133C37.9539 67.3759 37.9754 67.3407 37.999 67.3033C38.026 67.261 38.054 67.2186 38.0843 67.1785C38.1145 67.1361 38.1447 67.096 38.1761 67.0569C38.208 67.0179 38.2399 66.9794 38.2734 66.9426C38.3119 66.9008 38.3504 66.8584 38.3906 66.8183C38.4208 66.788 38.4527 66.7594 38.4846 66.7308L78.3546 98.2657C79.9218 99.5053 82.0164 99.4464 83.4847 98.1244L113.16 71.4013C113.371 71.6685 113.54 71.9765 113.659 72.3119C113.688 72.3961 113.714 72.4824 113.737 72.5682C113.748 72.6111 113.758 72.654 113.768 72.6969C113.776 72.7348 113.783 72.7739 113.789 72.8118C113.798 72.8563 113.806 72.9042 113.811 72.9504C113.818 72.9982 113.821 73.0461 113.824 73.0939C113.833 73.1923 113.835 73.2913 113.835 73.3903Z" fill="#75758F"/>
<path d="M95.4559 58.3714C95.4559 60.5718 95.1186 62.5752 94.4444 64.3833C93.7685 66.1948 92.8116 67.6085 91.5711 68.6238C90.3267 69.6426 88.8773 70.1368 87.221 70.1036C86.1122 70.0814 85.1289 69.7872 84.2709 69.2191C83.4112 68.6503 82.7911 67.9108 82.4129 67.0008L82.0496 66.9923C80.4095 68.9629 78.3114 69.9257 75.7481 69.875C73.0134 69.8204 70.8445 68.9377 69.2509 67.2217C67.6513 65.4989 66.8492 63.1693 66.8492 60.2375C66.8492 56.8942 67.9025 54.2414 70.0019 52.2874C72.0897 50.3437 74.8001 49.452 78.1204 49.6034C79.4342 49.6635 80.8773 49.8576 82.4474 50.1855C84.0112 50.5122 85.2943 50.8755 86.3003 51.2755L85.7826 62.6017C85.7826 64.7522 86.3523 65.8422 87.4901 65.8712C88.4453 65.8955 89.2048 65.1948 89.7702 63.7701C90.3344 62.3479 90.6163 60.4763 90.6163 58.1544C90.6163 55.6789 90.1191 53.4712 89.1233 51.5271C88.1246 49.5783 86.7161 48.0567 84.8922 46.9621C83.0598 45.8623 80.957 45.2499 78.5792 45.1279C75.4786 44.9689 72.7652 45.4823 70.4471 46.6746C68.1149 47.8742 66.3179 49.6879 65.0624 52.1173C63.8031 54.5544 63.172 57.4072 63.172 60.6708C63.172 65.0644 64.3422 68.4605 66.6726 70.8481C68.9895 73.2225 72.3234 74.4349 76.6487 74.4959C78.2739 74.5189 80.0521 74.3611 81.9822 74.023C83.902 73.6869 85.7835 73.1859 87.6252 72.5206V76.9662C84.4146 78.3406 80.821 79.0157 76.833 78.982C70.9541 78.9325 66.3098 77.3074 62.9456 74.0874C59.5524 70.8405 57.8454 66.3543 57.8454 60.6494C57.8454 56.6917 58.7179 53.133 60.4573 49.9842C62.1895 46.8491 64.6428 44.4567 67.8053 42.8064C70.9421 41.1693 74.5229 40.4704 78.534 40.699C81.8833 40.8896 84.8513 41.7557 87.4461 43.2909C90.0235 44.8158 92.0005 46.8844 93.3869 49.4968C94.7672 52.0994 95.4559 55.0559 95.4559 58.3714ZM72.2918 60.5045C72.2918 63.8256 73.6253 65.5198 76.2794 65.5872C77.6611 65.6221 78.7093 65.1535 79.427 64.1812C80.1434 63.2111 80.5771 61.6158 80.7293 59.3932L81.0257 54.2426C80.25 54.0405 79.3733 53.9194 78.3959 53.8802C76.479 53.803 74.9814 54.3544 73.908 55.5373C72.8308 56.7228 72.2918 58.3795 72.2918 60.5045Z" fill="#4048FF"/>
<path d="M9.8836 95.8255C8.23 92.521 8.48736 90.7646 9.09502 89.7626C10.7508 87.0312 15.7792 88.6293 18.1945 85.6713C19.6919 83.8373 19.4697 81.1279 18.9831 78.9893C19.3619 79.0162 19.7403 79.0431 20.1192 79.0701C24.2171 81.6805 26.4844 86.0128 25.7063 89.5861C24.6191 94.5772 17.4559 98.7004 9.8836 95.8255Z" fill="#C9C0F8"/>
<path d="M44.1048 83.1559C45.2641 83.7443 46.7202 83.2043 47.3576 81.9489C47.995 80.694 47.5715 79.1993 46.4128 78.6109C46.3529 78.5806 46.2913 78.5548 46.2303 78.53C46.4458 77.8355 46.6081 77.1355 46.7169 76.4354C46.7835 76.4354 46.85 76.4343 46.9177 76.4283C48.2402 76.3106 49.2895 75.0953 49.262 73.7139C49.2345 72.3325 48.1396 71.3085 46.8176 71.4262C46.7483 71.4323 46.6807 71.4433 46.613 71.4554C46.475 70.7707 46.2858 70.102 46.0466 69.4553C46.1076 69.4196 46.1681 69.3827 46.227 69.3415C47.3582 68.5491 47.72 66.9846 47.0348 65.8473C46.3496 64.7101 44.8769 64.4308 43.7458 65.2237C43.688 65.2644 43.633 65.3084 43.5791 65.353C43.132 64.8591 42.6421 64.4011 42.112 63.9831C42.1493 63.9221 42.1856 63.8599 42.2186 63.7951C42.856 62.5401 43.6886 61.1692 42.5205 60.5989C39.8183 59.2797 38.6585 60.4092 38.0211 61.6641C37.9881 61.729 37.9595 61.795 37.9326 61.8615C37.2826 61.6801 36.6238 61.5547 35.9611 61.4854C35.9655 61.4156 35.9683 61.3457 35.9672 61.2748C35.9397 59.8934 36.3494 59.1461 35.0219 59.1202C32.1271 59.0641 31.1505 60.3201 31.1785 61.7015C31.1802 61.7736 31.1862 61.8445 31.1934 61.9143C30.5302 62.1035 29.8785 62.3449 29.2445 62.6375C29.2142 62.5759 29.1829 62.5148 29.1471 62.4549C28.462 61.3177 26.9893 61.0383 25.8581 61.8313C24.7269 62.6237 24.3651 64.1882 25.0503 65.3255C25.0855 65.3838 25.124 65.4382 25.163 65.4921C24.662 65.9931 24.193 66.5375 23.7591 67.1209C23.703 67.0857 23.6463 67.0517 23.5859 67.0209C22.4266 66.4324 20.9705 66.9725 20.3331 68.2279C19.6957 69.4828 20.1192 70.9775 21.2779 71.5659C21.3378 71.5962 21.3994 71.622 21.4604 71.6467C21.2449 72.3413 21.0826 73.0413 20.9738 73.7414C20.9072 73.7414 20.8407 73.7425 20.773 73.7485C19.4505 73.8668 18.4012 75.0815 18.4287 76.4629C18.4562 77.8443 19.5511 78.8682 20.8737 78.75C20.943 78.744 21.0106 78.733 21.0782 78.7209C21.2163 79.4055 21.4054 80.0742 21.6446 80.7209C21.5836 80.7566 21.5231 80.7935 21.4643 80.8347C20.3331 81.6272 19.9713 83.1917 20.6565 84.3289C21.3416 85.4661 23.61 85.9946 24.7412 85.2016C24.799 85.1609 24.0577 84.8678 24.1116 84.8238C24.5587 85.3176 25.0486 85.7757 25.5787 86.1937C25.5414 86.2547 25.5051 86.3168 25.4721 86.3817C24.8347 87.6366 25.2581 89.1313 26.4168 89.7197C27.576 90.3081 29.0322 89.7681 29.6696 88.5127C29.7026 88.4478 29.7312 88.3818 29.7581 88.3152C30.4081 88.4967 31.0669 88.6221 31.7295 88.6914C31.7252 88.7612 31.7224 88.8311 31.7235 88.902C31.751 90.2834 32.8459 91.3073 34.1679 91.1891C35.4904 91.0714 36.5397 89.8561 36.5122 88.4747C36.5105 88.4027 36.5045 88.3317 36.4973 88.2619C37.1605 88.0727 37.8122 87.8313 38.4462 87.5388C38.4765 87.6003 38.5078 87.6614 38.5436 87.7208C39.2287 88.858 40.7014 89.1374 41.8326 88.3444C42.9638 87.552 43.3256 85.9874 42.6404 84.8502C42.6052 84.7919 42.5667 84.7375 42.5277 84.6836C43.0287 84.1826 43.4977 83.6382 43.9316 83.0547C43.9877 83.091 44.0444 83.1251 44.1048 83.1559ZM29.6553 83.3391C25.4468 81.2021 23.9109 75.7761 26.2243 71.2195C28.5378 66.6623 33.8253 64.7008 38.0338 66.8372C42.2423 68.9742 43.7782 74.4002 41.4647 78.9568C39.1507 83.5139 33.8638 85.4755 29.6553 83.3391Z" fill="#75758F"/>
<path d="M46.9171 76.4283C48.2397 76.3106 49.2889 75.0953 49.2614 73.7139C49.2339 72.3325 48.139 71.3085 46.817 71.4262C46.7477 71.4323 46.6801 71.4433 46.6125 71.4554C46.4744 70.7707 46.2853 70.1026 46.0461 69.4553C46.1071 69.4196 46.1676 69.3827 46.2264 69.3415C47.3576 68.5491 48.7577 66.6337 47.9592 65.5729C46.4442 63.5597 44.8764 64.4307 43.7452 65.2237C43.6875 65.2644 43.6325 65.3084 43.5786 65.353C43.1315 64.8591 42.6415 64.4011 42.1114 63.9831C42.1488 63.9221 42.1851 63.8599 42.2181 63.795C42.5651 63.1121 42.5953 62.3587 42.3666 61.7186C41.2739 63.6422 40.1955 65.5735 39.1369 67.5152C42.4941 69.9756 43.5632 74.8236 41.4647 78.9573C39.6863 82.4597 36.1514 84.4268 32.6996 84.1804C32.5456 84.5797 32.3944 84.9811 32.2294 85.3765C31.7818 86.4499 31.2737 87.5008 30.765 88.5506C31.0851 88.6111 31.4068 88.6584 31.729 88.6919C31.7246 88.7618 31.7219 88.8316 31.723 88.9025C31.7504 90.2839 32.5891 91.4574 34.9861 91.3299C36.312 91.2595 36.5397 89.8566 36.5122 88.4753C36.5105 88.4032 36.5045 88.3323 36.4973 88.2624C37.1605 88.0733 37.8122 87.8319 38.4462 87.5393C38.4765 87.6009 38.5078 87.6619 38.5436 87.7213C39.2287 88.8585 41.6055 89.3419 42.7372 88.5489C43.8684 87.7565 43.3262 85.988 42.641 84.8508C42.6058 84.7925 42.5673 84.738 42.5282 84.6841C43.0292 84.1832 43.4983 83.6387 43.9322 83.0553C43.9883 83.0905 44.0449 83.1251 44.1054 83.1554C45.2646 83.7438 46.7208 83.2038 47.3581 81.9483C47.9955 80.6934 47.5721 79.1987 46.4134 78.6103C46.3535 78.5801 46.2919 78.5542 46.2308 78.5295C46.4464 77.8349 46.6086 77.1349 46.7175 76.4349C46.7824 76.4354 46.8489 76.4343 46.9171 76.4283Z" fill="#75758F"/>
<path d="M45.3515 83.2973C46.5107 83.8857 47.9669 83.3457 48.6043 82.0902C49.2416 80.8353 48.8182 79.3406 47.6595 78.7522C47.5996 78.722 47.538 78.6961 47.4769 78.6714C47.6925 77.9768 47.8547 77.2768 47.9636 76.5767C48.0302 76.5767 48.0967 76.5756 48.1643 76.5696C49.4869 76.4519 50.5361 75.2366 50.5086 73.8552C50.4811 72.4738 49.3862 71.4499 48.0642 71.5676C47.995 71.5736 47.9273 71.5846 47.8597 71.5967C47.7217 70.9121 47.5325 70.2434 47.2933 69.5967C47.3543 69.5609 47.4148 69.5241 47.4736 69.4828C48.6048 68.6904 48.9667 67.1259 48.2815 65.9887C47.5963 64.8514 46.1236 64.5721 44.9924 65.3651C44.9347 65.4058 44.8797 65.4498 44.8258 65.4943C44.3787 65.0005 43.8887 64.5424 43.3586 64.1245C43.396 64.0634 43.4323 64.0013 43.4653 63.9364C44.1027 62.6815 43.6792 61.1868 42.5206 60.5984C41.3613 60.01 39.9052 60.55 39.2678 61.8055C39.2348 61.8704 39.2062 61.9363 39.1787 62.0029C38.5287 61.8214 37.8699 61.696 37.2073 61.6267C37.2111 61.5569 37.2144 61.4871 37.2133 61.4161C37.1858 60.0347 36.0909 59.0108 34.7689 59.1285C33.4464 59.2462 32.3972 60.4615 32.4247 61.8429C32.4263 61.9149 32.4324 61.9858 32.4395 62.0557C31.7763 62.2448 31.1247 62.4863 30.4906 62.7788C30.4604 62.7172 30.429 62.6562 30.3933 62.5962C29.7081 61.459 28.2354 61.1797 27.1042 61.9726C25.973 62.7656 25.6112 64.3296 26.2964 65.4668C26.3316 65.5251 26.3701 65.5795 26.4091 65.6334C25.9082 66.1344 25.4391 66.6788 25.0052 67.2623C24.9491 67.2271 24.8925 67.193 24.832 67.1622C23.6727 66.5738 22.2166 67.1138 21.5792 68.3693C20.9419 69.6242 21.3653 71.1188 22.524 71.7072C22.5839 71.7375 22.6455 71.7633 22.7065 71.7881C22.491 72.4826 22.3288 73.1827 22.2199 73.8827C22.1533 73.8827 22.0868 73.8838 22.0192 73.8899C20.6966 74.0081 19.6474 75.2229 19.6749 76.6042C19.7024 77.9856 20.7972 79.0096 22.1192 78.8913C22.1885 78.8853 22.2562 78.8743 22.3238 78.8622C22.4618 79.5468 22.651 80.2155 22.8902 80.8622C22.8292 80.898 22.7687 80.9348 22.7098 80.9761C21.5787 81.7685 21.2168 83.333 21.902 84.4702C22.5872 85.6075 24.0599 85.8868 25.1911 85.0938C25.2488 85.0531 25.3038 85.0091 25.3577 84.9646C25.8048 85.4584 26.2947 85.9165 26.8249 86.3344C26.7875 86.3955 26.7512 86.4576 26.7182 86.5225C26.0808 87.7774 26.5043 89.2721 27.6629 89.8605C28.8222 90.4489 30.2783 89.9089 30.9157 88.6534C30.9487 88.5885 30.9773 88.5226 31.0042 88.456C31.6542 88.6375 32.313 88.7629 32.9757 88.8322C32.9713 88.902 32.9685 88.9718 32.9696 89.0428C32.9971 90.4242 34.092 91.4481 35.414 91.3304C36.7365 91.2127 37.7858 89.9974 37.7583 88.616C37.7566 88.544 37.7506 88.4731 37.7434 88.4032C38.4066 88.2141 39.0583 87.9726 39.6923 87.6801C39.7226 87.7417 39.7539 87.8027 39.7897 87.8621C40.4749 88.9993 41.9475 89.2787 43.0787 88.4857C44.2099 87.6927 44.5717 86.1288 43.8865 84.9915C43.8513 84.9333 43.8129 84.8788 43.7738 84.8249C44.2748 84.324 44.7439 83.7795 45.1777 83.1961C45.2344 83.2324 45.291 83.267 45.3515 83.2973ZM30.9019 83.4809C26.6934 81.344 25.1575 75.9179 27.471 71.3613C29.7845 66.8042 35.0719 64.8426 39.2805 66.9791C43.489 69.116 45.0249 74.5421 42.7114 79.0987C40.3979 83.6558 35.1104 85.6173 30.9019 83.4809Z" fill="#4048FF"/>
<path d="M14.2637 147.788L14.1872 148.712C14.1707 148.912 14.2967 149.096 14.4903 149.15C15.1721 149.339 16.7746 149.723 18.0262 149.535C19.6611 149.291 15.3751 147.788 15.3751 147.788H14.2637V147.788Z" fill="#26264F"/>
<path d="M14.4639 146.039L14.2637 147.788C14.2637 147.788 14.9549 148.257 15.3751 147.788L16.2285 146.199L14.4639 146.039Z" fill="url(#paint4_linear)"/>
<path d="M35.7654 148.722L36.0486 149.767C36.1355 150.047 36.3824 150.245 36.6738 150.269C37.6945 150.354 40.0608 150.494 41.1105 150.095C42.4688 149.577 37.1275 148.567 37.1275 148.567L35.7654 148.722Z" fill="#26264F"/>
<path d="M35.2611 147.334L35.7654 148.583C35.7654 148.583 36.621 149.084 37.3827 148.683L36.9669 147.152L35.2611 147.334Z" fill="url(#paint5_linear)"/>
<path d="M15.4878 111.478C14.9373 112.514 14.256 114.091 14.0184 116.081C13.6478 119.186 14.7053 120.38 15.4388 124.76C15.9057 127.547 16.3951 130.468 15.7034 133.992C15.1188 136.971 14.2246 137.661 13.8749 140.663C13.5697 143.279 13.9299 145.498 14.2972 146.999C14.9247 147.024 15.5516 147.05 16.179 147.076C18.2346 144.332 20.5553 140.466 22.045 135.486C22.5119 133.925 22.2979 134.257 23.053 118.352C23.1344 116.635 23.2322 114.626 21.9009 113.129C20.0625 111.062 16.7042 111.327 15.4878 111.478Z" fill="url(#paint6_linear)"/>
<path d="M17.9965 110.608C16.3979 111.774 16.3204 114.441 16.6652 116.138C17.2162 118.85 18.9957 119.812 26.006 127.099C27.0102 128.143 27.603 128.777 28.2332 129.798C30.0704 132.773 30.0781 135.552 30.3284 137.475C30.6611 140.033 31.7482 143.594 35.1583 147.787C35.4552 147.863 35.9688 147.951 36.5831 147.831C36.9477 147.759 37.2413 147.635 37.4536 147.524C37.5658 143.331 37.2452 137.141 35.0472 130.064C32.5374 121.984 28.6368 116.151 25.8823 112.655C23.0348 110.021 19.7348 109.34 17.9965 110.608Z" fill="url(#paint7_linear)"/>
<path d="M14.7619 85.1775C14.967 84.2536 14.4737 83.4364 14.3654 83.2599C13.9117 82.523 13.8001 82.4246 13.5966 82.3042L13.314 82.1507C13.314 82.1507 13.298 82.1452 13.281 82.1403C13.1022 82.0875 12.5039 82.1023 12.3841 82.1348C12.0019 82.2387 11.6774 83.8368 11.9177 86.0573C11.9062 86.1431 11.8957 86.2295 11.8853 86.3169C11.8737 86.4137 11.8638 86.5105 11.8539 86.6061C11.7753 87.3931 11.2881 88.0816 10.5765 88.4258C9.21654 89.0835 9.05761 89.3799 9.09391 89.5218C9.18849 89.8919 10.7728 89.838 11.9133 89.6417C14.4011 89.2138 15.9085 90.0431 15.7528 89.6037C15.6852 89.4124 14.3484 88.7508 13.7605 87.4569C13.9068 87.7791 13.6373 86.7601 13.5752 86.4115C13.728 86.3218 14.6107 85.8583 14.7619 85.1775Z" fill="url(#paint8_linear)"/>
<path d="M14.0805 81.4743C14.1163 82.1645 13.832 82.9195 13.6731 83.0465C13.6527 83.063 13.5372 83.1648 13.4382 83.3336C13.4245 83.3567 13.4129 83.3831 13.4036 83.4172C13.2766 83.8604 13.9959 84.3339 13.8732 84.5357C13.7841 84.6825 13.3041 84.5192 13.2546 84.6446C13.2084 84.7623 13.612 84.9784 13.5598 85.1192C13.5202 85.2253 13.2749 85.1439 13.1319 85.3111C13.061 85.3947 13.0863 85.4563 13.0198 85.7026C12.9818 85.8418 12.9268 85.9952 12.8828 86.0815C12.6667 86.5 11.9997 86.6853 11.8605 86.5303C11.822 86.4868 11.8506 86.4472 11.8055 86.2976C11.8055 86.2976 11.7637 86.1591 11.6565 86.0018C11.5042 85.7774 11.1577 85.63 10.8036 85.404C10.1486 84.985 9.95563 84.6078 9.89733 84.4802C9.87644 84.4345 9.86324 84.4004 9.85334 84.3751C9.66142 83.8758 9.61963 83.1285 9.82255 82.6566C10.1629 81.8659 11.0472 82.1837 11.7121 81.3819C12.4792 80.457 11.9271 79.2813 12.3626 79.124C12.8432 78.9502 14.014 80.198 14.0805 81.4743Z" fill="#26264F"/>
<path d="M13.6159 84.3873C13.4339 84.164 13.149 84.3988 13.1638 84.6996C13.1787 85.0004 13.4872 85.2968 13.7665 85.222C14.0459 85.1472 13.8611 84.6875 13.6159 84.3873Z" fill="url(#paint9_linear)"/>
<path d="M13.4514 83.8918L13.8721 84.3807C13.8721 84.3807 14.3296 84.9828 14.5579 84.6265C14.7443 84.3356 14.7965 84.3389 14.8097 84.3499C14.8125 84.3521 14.813 84.3554 14.8136 84.3554C14.8169 84.3543 14.7762 84.2179 14.7399 84.0975C14.8526 84.2415 15.0099 84.4769 15.1155 84.7991C15.2178 85.112 15.3272 85.4475 15.1661 85.7846C15.1567 85.8038 14.9785 86.1629 14.614 86.2674C14.614 86.2674 14.471 86.3087 13.8518 86.2344C13.8518 86.2344 14.4946 85.7115 14.4985 85.5954C14.5089 85.2798 14.064 85.134 13.7049 84.5082C13.5664 84.2668 13.4921 84.0452 13.4514 83.8918Z" fill="#26264F"/>
<path d="M21.6094 91.2634C20.5129 90.3318 18.7466 89.0808 16.3061 88.2762C13.7962 87.4492 12.9873 87.1181 8.5451 89.1968C6.96025 89.9386 8.18986 96.9836 9.06642 99.919C10.4044 104.399 8.92674 104.878 10.5149 111.086C11.463 114.792 12.3384 115.984 13.2738 116.783C15.435 118.629 18.2269 118.638 19.203 118.641C22.48 118.652 23.5402 117.106 27.0223 116.795C27.2758 116.773 27.7355 116.739 28.1507 116.421C29.2626 115.569 28.9954 113.474 28.8298 112.372C27.7196 104.988 25.3588 99.3955 25.3588 99.3955C24.4503 97.2448 23.2124 94.4644 21.6094 91.2634Z" fill="#F6F6FF"/>
<path opacity="0.3" d="M28.8298 112.372C27.7196 104.987 25.3588 99.3949 25.3588 99.3949C24.5977 97.5912 23.6001 95.3409 22.354 92.775C18.1752 96.6217 17.501 98.6129 17.9888 99.7155C18.691 101.303 21.8432 101.14 22.2182 102.941C22.6202 104.874 19.2525 106.323 19.7095 108.317C20.0911 109.984 22.6697 109.957 22.8633 111.471C23.0469 112.904 20.9358 114.473 19.2074 115.055C16.4474 115.985 13.9552 114.636 13.3294 114.267C12.0745 113.526 11.2215 112.531 10.6425 111.563C11.5421 114.893 12.3808 116.021 13.2744 116.783C15.4355 118.629 18.2275 118.638 19.2036 118.641C22.4805 118.652 23.5408 117.106 27.0228 116.795C27.2763 116.773 27.7361 116.739 28.1512 116.421C29.2626 115.568 28.9954 113.474 28.8298 112.372Z" fill="#4048FF"/>
<path opacity="0.3" d="M20.5569 135.492C21.4032 132.537 18.2858 130.999 18.8159 126.48C19.0595 124.407 19.8008 124.008 19.533 122.794C19.1101 120.88 16.7746 119.651 14.0762 118.84C14.344 120.401 14.9604 121.902 15.4388 124.761C15.9057 127.548 16.3951 130.469 15.7034 133.993C15.1188 136.972 14.2246 137.662 13.8749 140.664C13.7446 141.78 13.7402 142.818 13.8006 143.764C14.1586 142.851 14.6508 141.88 15.3338 140.92C17.6852 137.616 19.8816 137.849 20.5569 135.492Z" fill="url(#paint10_linear)"/>
<path d="M41.1067 89.7214C41.1067 89.7214 41.4482 89.1621 41.3415 88.7123C41.2348 88.2619 41.1314 87.8082 41.2469 87.508C41.3624 87.2077 41.6731 87.9413 41.8018 88.3097C41.9305 88.6782 42.3924 88.7849 43.0512 88.103C43.71 87.4211 44.1554 86.8635 44.1554 86.8635C44.1554 86.8635 45.1128 88.048 42.5469 90.0843C42.5469 90.0843 41.5598 90.4792 41.3591 90.8603C41.1584 91.2413 41.2332 91.0016 41.2332 91.0016L40.5089 90.4396L41.1067 89.7214Z" fill="url(#paint11_linear)"/>
<path d="M11.3073 89.2671C12.7707 86.9987 18.2434 88.0699 21.0661 88.6226C25.9114 89.5712 26.9326 91.0741 30.5489 91.5685C32.9174 91.8924 36.5034 91.7978 41.2288 89.4508C41.3822 90.2487 41.5356 91.0466 41.6891 91.8446C40.0003 93.7423 36.7805 96.8252 31.8379 98.6575C29.9819 99.3454 21.076 102.647 15.1738 98.013C12.1921 95.6725 9.98699 91.3139 11.3073 89.2671Z" fill="#D6D6E8"/>
<path d="M18.9297 79.2246C18.823 79.008 18.8379 78.0698 18.6674 77.9048C18.3875 77.6343 18.487 77.5534 18.1455 77.367C17.9701 77.2713 17.8013 77.1278 17.7699 76.9227C17.7017 76.4717 18.4128 74.4464 18.4128 74.4464C18.4128 74.4464 19.1607 74.9078 18.9237 75.329C18.6866 75.7503 18.525 76.2072 18.9022 76.4662C19.2795 76.7253 19.5269 77.1366 19.671 77.593C19.8151 78.0489 19.8129 79.4336 19.8129 79.4336C19.8129 79.4336 19.1843 79.7437 18.9297 79.2246Z" fill="url(#paint12_linear)"/>
<defs>
<linearGradient id="paint0_linear" x1="108.881" y1="40.3731" x2="78.3748" y2="202.487" gradientUnits="userSpaceOnUse">
<stop stop-color="#1877F2"/>
<stop offset="1" stop-color="#1877F2" stop-opacity="0"/>
</linearGradient>
<linearGradient id="paint1_linear" x1="19.6098" y1="133.556" x2="165.599" y2="133.556" gradientUnits="userSpaceOnUse">
<stop offset="0.494" stop-color="#EBEFF2"/>
<stop offset="1" stop-color="white"/>
</linearGradient>
<linearGradient id="paint2_linear" x1="89.5876" y1="40.7586" x2="46.3288" y2="130.219" gradientUnits="userSpaceOnUse">
<stop stop-color="white"/>
<stop offset="0.9964" stop-color="#EBEFF2"/>
</linearGradient>
<linearGradient id="paint3_linear" x1="33.4548" y1="94.9306" x2="118.755" y2="85.1218" gradientUnits="userSpaceOnUse">
<stop stop-color="#F52079"/>
<stop offset="1" stop-color="#4048FF"/>
</linearGradient>
<linearGradient id="paint4_linear" x1="15.2148" y1="153.289" x2="15.2981" y2="136.56" gradientUnits="userSpaceOnUse">
<stop stop-color="#FFC444"/>
<stop offset="0.9964" stop-color="#F36F56"/>
</linearGradient>
<linearGradient id="paint5_linear" x1="36.2972" y1="152.985" x2="36.374" y2="137.548" gradientUnits="userSpaceOnUse">
<stop stop-color="#FFC444"/>
<stop offset="0.9964" stop-color="#F36F56"/>
</linearGradient>
<linearGradient id="paint6_linear" x1="16.4663" y1="112.219" x2="20.6137" y2="149.853" gradientUnits="userSpaceOnUse">
<stop stop-color="#311944"/>
<stop offset="1" stop-color="#893976"/>
</linearGradient>
<linearGradient id="paint7_linear" x1="22.0111" y1="134.263" x2="33.5826" y2="123.715" gradientUnits="userSpaceOnUse">
<stop stop-color="#311944"/>
<stop offset="1" stop-color="#893976"/>
</linearGradient>
<linearGradient id="paint8_linear" x1="15.5697" y1="81.1087" x2="9.76003" y2="96.7388" gradientUnits="userSpaceOnUse">
<stop stop-color="#FFC444"/>
<stop offset="0.9964" stop-color="#F36F56"/>
</linearGradient>
<linearGradient id="paint9_linear" x1="14.9987" y1="80.8965" x2="9.18907" y2="96.5266" gradientUnits="userSpaceOnUse">
<stop stop-color="#FFC444"/>
<stop offset="0.9964" stop-color="#F36F56"/>
</linearGradient>
<linearGradient id="paint10_linear" x1="14.3788" y1="112.449" x2="18.5262" y2="150.082" gradientUnits="userSpaceOnUse">
<stop stop-color="#311944"/>
<stop offset="1" stop-color="#893976"/>
</linearGradient>
<linearGradient id="paint11_linear" x1="41.6735" y1="86.9184" x2="44.8157" y2="95.0297" gradientUnits="userSpaceOnUse">
<stop stop-color="#FFC444"/>
<stop offset="0.9964" stop-color="#F36F56"/>
</linearGradient>
<linearGradient id="paint12_linear" x1="19.1938" y1="76.704" x2="16.3497" y2="84.9535" gradientUnits="userSpaceOnUse">
<stop stop-color="#FFC444"/>
<stop offset="0.9964" stop-color="#F36F56"/>
</linearGradient>
</defs>
</svg>
