<svg width="40" height="40" viewBox="0 0 40 40" fill="none" xmlns="http://www.w3.org/2000/svg">
<path d="M23.3334 13.3334H6.66671C4.82837 13.3334 3.33337 14.8284 3.33337 16.6667V33.3334C3.33337 35.1717 4.82837 36.6667 6.66671 36.6667H23.3334C25.1717 36.6667 26.6667 35.1717 26.6667 33.3334V16.6667C26.6667 14.8284 25.1717 13.3334 23.3334 13.3334Z" fill="#ADADC8"/>
<path d="M33.3334 3.33337H16.6667C15.7827 3.33337 14.9348 3.68456 14.3097 4.30968C13.6846 4.93481 13.3334 5.78265 13.3334 6.66671V10H26.6667C27.5508 10 28.3986 10.3512 29.0237 10.9764C29.6489 11.6015 30 12.4493 30 13.3334V26.6667H33.3334C34.2174 26.6667 35.0653 26.3155 35.6904 25.6904C36.3155 25.0653 36.6667 24.2174 36.6667 23.3334V6.66671C36.6667 5.78265 36.3155 4.93481 35.6904 4.30968C35.0653 3.68456 34.2174 3.33337 33.3334 3.33337Z" fill="#ADADC8"/>
</svg>
