<svg width="25" height="26" viewBox="0 0 25 26" fill="none" xmlns="http://www.w3.org/2000/svg">
<path fill-rule="evenodd" clip-rule="evenodd" d="M12.5568 0.351562C9.19568 0.351562 8.77386 0.366259 7.45374 0.426335C6.1362 0.486668 5.23687 0.695257 4.44996 1.00131C3.63597 1.31741 2.94549 1.74026 2.25758 2.42843C1.56916 3.11633 1.14631 3.80681 0.829175 4.62054C0.522351 5.40771 0.313504 6.3073 0.254202 7.62433C0.195158 8.94444 0.179688 9.36652 0.179688 12.7277C0.179688 16.0888 0.194642 16.5093 0.25446 17.8295C0.315051 19.147 0.52364 20.0463 0.829433 20.8332C1.1458 21.6472 1.56865 22.3377 2.25681 23.0256C2.94446 23.714 3.63494 24.1379 4.44841 24.454C5.23584 24.7601 6.13543 24.9687 7.45271 25.029C8.77283 25.0891 9.19439 25.1038 12.5553 25.1038C15.9167 25.1038 16.3372 25.0891 17.6573 25.029C18.9749 24.9687 19.8752 24.7601 20.6626 24.454C21.4764 24.1379 22.1658 23.714 22.8535 23.0256C23.5419 22.3377 23.9647 21.6472 24.2819 20.8335C24.5861 20.0463 24.795 19.1467 24.8569 17.8297C24.9162 16.5096 24.9316 16.0888 24.9316 12.7277C24.9316 9.36652 24.9162 8.9447 24.8569 7.62458C24.795 6.30704 24.5861 5.40771 24.2819 4.6208C23.9647 3.80681 23.5419 3.11633 22.8535 2.42843C22.1651 1.74001 21.4766 1.31716 20.6619 1.00131C19.8729 0.695257 18.9731 0.486668 17.6555 0.426335C16.3354 0.366259 15.9151 0.351562 12.553 0.351562H12.5568ZM11.4455 2.58378C11.775 2.58327 12.1427 2.58378 12.5557 2.58378C15.8602 2.58378 16.2518 2.59564 17.5567 2.65495C18.7634 2.71012 19.4183 2.91175 19.8545 3.08115C20.4321 3.30546 20.8439 3.57361 21.2768 4.00678C21.7099 4.43994 21.9781 4.85248 22.2029 5.43003C22.3723 5.86577 22.5742 6.52067 22.6291 7.72734C22.6884 9.03199 22.7013 9.4239 22.7013 12.7268C22.7013 16.0296 22.6884 16.4216 22.6291 17.7262C22.5739 18.9329 22.3723 19.5878 22.2029 20.0235C21.9786 20.6011 21.7099 21.0123 21.2768 21.4452C20.8436 21.8784 20.4323 22.1465 19.8545 22.3708C19.4188 22.541 18.7634 22.7421 17.5567 22.7973C16.2521 22.8566 15.8602 22.8695 12.5557 22.8695C9.25106 22.8695 8.85941 22.8566 7.55476 22.7973C6.34809 22.7416 5.69319 22.54 5.25667 22.3706C4.67912 22.1463 4.26658 21.8781 3.83342 21.445C3.40026 21.0118 3.13211 20.6003 2.90728 20.0225C2.73788 19.5867 2.53599 18.9318 2.48107 17.7252C2.42177 16.4205 2.40991 16.0286 2.40991 12.7237C2.40991 9.41874 2.42177 9.02889 2.48107 7.72425C2.53625 6.51758 2.73788 5.86268 2.90728 5.42642C3.13159 4.84887 3.40026 4.43633 3.83342 4.00317C4.26658 3.57 4.67912 3.30185 5.25667 3.07702C5.69293 2.90685 6.34809 2.70574 7.55476 2.6503C8.69645 2.59874 9.1389 2.58327 11.4455 2.58069V2.58378ZM19.166 4.63565C18.3461 4.63565 17.6809 5.30009 17.6809 6.12026C17.6809 6.94018 18.3461 7.6054 19.166 7.6054C19.986 7.6054 20.6512 6.94018 20.6512 6.12026C20.6512 5.30035 19.986 4.63513 19.166 4.63513V4.63565ZM12.5602 6.37427C9.05032 6.37427 6.20459 9.22 6.20459 12.7299C6.20459 16.2398 9.05032 19.0843 12.5602 19.0843C16.0701 19.0843 18.9148 16.2398 18.9148 12.7299C18.9148 9.22 16.0699 6.37427 12.56 6.37427H12.5602ZM12.558 8.60229C14.8362 8.60229 16.6834 10.4492 16.6834 12.7277C16.6834 15.0059 14.8362 16.853 12.558 16.853C10.2795 16.853 8.43262 15.0059 8.43262 12.7277C8.43262 10.4492 10.2795 8.60229 12.558 8.60229Z" fill="white"/>
</svg>
