<svg width="24" height="20" viewBox="0 0 24 20" fill="none" xmlns="http://www.w3.org/2000/svg">
<path fill-rule="evenodd" clip-rule="evenodd" d="M11.6894 5.262L11.7411 6.11345L10.8805 6.00919C7.7479 5.60953 5.01122 4.25417 2.68762 1.97785L1.55163 0.848379L1.25903 1.68245C0.639403 3.54173 1.03528 5.50527 2.32617 6.82589C3.01464 7.5557 2.85973 7.65996 1.67212 7.22554C1.25903 7.08653 0.897581 6.98227 0.863157 7.0344C0.742674 7.15604 1.15576 8.7373 1.48278 9.36285C1.93029 10.2317 2.84252 11.0831 3.84081 11.587L4.68419 11.9867L3.6859 12.0041C2.72204 12.0041 2.68762 12.0215 2.79089 12.3864C3.13512 13.5158 4.49486 14.7148 6.00951 15.2361L7.07664 15.601L6.1472 16.157C4.77025 16.9564 3.15234 17.4082 1.53442 17.4429C0.759886 17.4603 0.123047 17.5298 0.123047 17.5819C0.123047 17.7557 2.2229 18.7288 3.44494 19.111C7.11107 20.2405 11.4657 19.754 14.7359 17.8252C17.0595 16.4524 19.3831 13.7243 20.4675 11.0831C21.0527 9.67563 21.6379 7.10391 21.6379 5.87018C21.6379 5.07086 21.6895 4.9666 22.6534 4.0109C23.2214 3.45485 23.7549 2.84667 23.8582 2.67291C24.0303 2.34276 24.0131 2.34276 23.1353 2.63816C21.6723 3.15945 21.4658 3.08994 22.1887 2.308C22.7222 1.75196 23.3591 0.744121 23.3591 0.448721C23.3591 0.396591 23.1009 0.483474 22.8083 0.639862C22.4985 0.813626 21.81 1.07427 21.2936 1.23066L20.3642 1.52606L19.5208 0.952638C19.0561 0.639862 18.4021 0.292332 18.0578 0.188074C17.18 -0.0551971 15.8375 -0.0204442 15.0457 0.257579C12.8943 1.03952 11.5345 3.05519 11.6894 5.262Z" fill="white"/>
</svg>
