<svg width="26" height="19" viewBox="0 0 26 19" fill="none" xmlns="http://www.w3.org/2000/svg">
<path fill-rule="evenodd" clip-rule="evenodd" d="M22.8828 1.12349C23.9783 1.42411 24.8411 2.30989 25.1339 3.43475C25.666 5.47343 25.666 9.72715 25.666 9.72715C25.666 9.72715 25.666 13.9807 25.1339 16.0196C24.8411 17.1444 23.9783 18.0302 22.8828 18.331C20.8974 18.8772 12.9355 18.8772 12.9355 18.8772C12.9355 18.8772 4.97364 18.8772 2.98813 18.331C1.89258 18.0302 1.02981 17.1444 0.737008 16.0196C0.205078 13.9807 0.205078 9.72715 0.205078 9.72715C0.205078 9.72715 0.205078 5.47343 0.737008 3.43475C1.02981 2.30989 1.89258 1.42411 2.98813 1.12349C4.97364 0.577148 12.9355 0.577148 12.9355 0.577148C12.9355 0.577148 20.8974 0.577148 22.8828 1.12349ZM10.5498 6.14502V14.1015L16.915 10.1234L10.5498 6.14502Z" fill="white"/>
</svg>
